<?xml version="1.0" encoding="utf-8"?>
<!-- Generator: Adobe Illustrator 23.0.6, SVG Export Plug-In . SVG Version: 6.00 Build 0)  -->
<svg version="1.1" id="Layer_1" xmlns="http://www.w3.org/2000/svg" xmlns:xlink="http://www.w3.org/1999/xlink" x="0px" y="0px"
	 viewBox="0 0 363.9 164.8" style="enable-background:new 0 0 363.9 164.8;" xml:space="preserve">
<style type="text/css">
	.st0{fill:#FFFFFF;}
</style>
<title>logo_white</title>
<g>
	<g id="Layer_1-2">
		<path class="st0" d="M55,5.1C49.6,4,44.3,12,42.5,16.3s-8.6,19.6-10.9,26.5s-7.7,7.1-10.6,7.1s-5.2-2.7-3.5-6.7
			c1.2-2.9,6.3-13.5,11.1-22.6c0.8-3.6,1.2-7.2-0.1-8.5c-3.1-3.2-5.1-0.7-7.1,1s-4,0.5-5.5-0.5S15,8,17.4,5.7
			c2.7-2.6,6.1-4.6,9.7-5.7H0v79.3h28.9c5.6-12,18.9-40.7,23.1-51.5C57.5,14.1,60,6.1,55,5.1z"/>
		<path class="st0" d="M36.8,7.2C39.1,4.3,42,1.9,45.2,0H32.5C34.6,1,36.5,3.4,36.8,7.2z"/>
		<path class="st0" d="M66.8,20.1c-2.7,7.4-15.8,45.1-20.6,59.2h33.1V0h-15C68.2,4.6,69.3,13.4,66.8,20.1z"/>
		<path class="st0" d="M117,26.9c-13.7,0-24.8,11.1-24.8,24.8s11.1,24.8,24.8,24.8s24.8-11.1,24.8-24.8c0,0,0,0,0,0
			C141.8,38,130.7,26.9,117,26.9z M117,67.9c-8.9,0-16.2-7.3-16.1-16.2s7.3-16.2,16.2-16.1c8.9,0,16.1,7.2,16.1,16.1
			C133.2,60.6,125.9,67.9,117,67.9L117,67.9z"/>
		<path class="st0" d="M339.1,34.7h-12.2l14.8-21.3h-10.5l-20.8,29.9h28.8c8.9,0,16.1,7.2,16.1,16.2v8.4h-72c-0.7,0-1.3,0-2,0
			c0.9-0.7,1.8-1.5,2.7-2.3c0.4-0.3,0.7-0.7,1.1-1l0.2-0.1l0,0c9.5-9.8,9.3-25.5-0.5-35.1s-25.5-9.3-35.1,0.5
			c-9.4,9.6-9.4,25,0,34.6v0.1c1.3,1.2,2.6,2.4,4,3.5c-0.6,0-1.3,0-2,0h-27.3c-5.3,0-9.5-4.3-9.5-9.5v-46h-8.6v46
			c0.1,9.8,7.9,17.9,17.8,18.1h27.6c5.3,0.1,10.6-0.5,15.8-1.7c5.2,1.3,10.5,1.9,15.8,1.7h80.7v-17
			C363.9,45.8,352.8,34.7,339.1,34.7z M267.5,30.9c8.9,0,16.1,7.2,16.2,16.1c0,4.2-1.6,8.3-4.6,11.3c-0.2,0.3-0.5,0.5-0.8,0.7
			s-0.3,0.3-0.5,0.5c-3,2.7-6.5,4.8-10.3,6.2c-4-1.5-7.7-3.7-10.8-6.6l0,0c-6.7-5.9-7.3-16.1-1.4-22.8
			C258.4,32.8,262.8,30.9,267.5,30.9z"/>
		<path class="st0" d="M177.7,47.3c4.2,0,7.9,2.7,9.1,6.7l6.7-6.1c-4.9-8.7-16-11.8-24.8-6.9c-5.7,3.2-9.2,9.3-9.2,15.8v11h-9.4v8.6
			h42.2v-8.7h-24.2v-11C168.2,51.6,172.4,47.3,177.7,47.3z"/>
		<rect x="101.3" y="6.7" class="st0" width="9.4" height="8.6"/>
		<rect x="120.8" y="6.7" class="st0" width="9.4" height="8.6"/>
		<rect x="263.9" y="6.7" class="st0" width="9.5" height="8.6"/>
		<path class="st0" d="M17,125.8h-3.2c-2.3,0-4.4-1.7-4.8-4c-0.7,1.2-2,2-3.4,2c-3.4,0-5.5-2.6-5.5-6.3c0-4,2.1-6.5,5.5-6.5h6.6v8.4
			c0,2.1,1,3.2,3,3.2H17V125.8z M9,117.2v-3.8H6.3c-2.1,0-3.4,1.7-3.4,4.1c0,2,1.2,3.8,2.9,3.8C7.8,121.3,9,119.5,9,117.2z
			 M6.8,108.9H3.9v-3h2.9L6.8,108.9z M11.8,108.9H8.9v-3h2.9L11.8,108.9z"/>
		<path class="st0" d="M31.7,119.6c0.2,3.2-2.3,5.9-5.5,6.1c-0.2,0-0.4,0-0.5,0h-9.4v-3h4.2c-0.5-1-0.8-2.1-0.8-3.2
			c-0.2-3.2,2.3-6,5.5-6.1c0.2,0,0.3,0,0.5,0c3.3,0,5.9,2.6,6,5.8C31.7,119.4,31.7,119.5,31.7,119.6z M24.7,111.1h-2.9v-3h2.9V111.1
			z M28.7,119.6c0-2-1.2-3.5-3-3.5s-2.9,1.3-2.9,3.4c0,1.9,1.2,3.5,3,3.5S28.6,121.6,28.7,119.6L28.7,119.6z M29.7,111.1h-2.9v-3
			h2.9V111.1z"/>
		<path class="st0" d="M42.3,125.8h-3.5c-1.3,0.1-2.5-0.4-3.3-1.4c-0.8-1-1.1-2.2-1.1-3.5v-12.3h3v11.1c-0.1,0.9,0.2,1.9,0.9,2.6
			c0.7,0.4,1.5,0.5,2.3,0.4h1.8L42.3,125.8z"/>
		<path class="st0" d="M67,125.8H41.5v-3h5.2v-14.2h2.9l-0.4,9.6c2.5-3.2,5-4.6,7.9-4.6c4.5,0,6.8,3.1,6.9,9.1h3L67,125.8z
			 M60.9,122.8c0-0.3,0-0.6,0-0.8c0-3.4-1.5-5.6-4.1-5.6c-3,0-6.1,2.7-7.8,6.4H60.9z"/>
		<path class="st0" d="M73.8,120.9c0,3.2-1.5,4.8-4.5,4.8h-3.1v-3h2.5c0.8,0.1,1.5-0.2,1.9-0.9c0.2-0.6,0.2-1.3,0.2-1.9v-11.4h3
			L73.8,120.9z"/>
		<path class="st0" d="M79.5,125.8h-3v-17.2h3V125.8z"/>
		<path class="st0" d="M100.2,119.3c0.2,3.4-2.4,6.3-5.8,6.4c-0.2,0-0.3,0-0.5,0c-3.5,0.1-6.3-2.7-6.3-6.2c0-0.1,0-0.3,0-0.4
			c0-3.5,2.9-6.3,6.4-6.3C97.4,113,100.3,115.8,100.2,119.3z M92.8,110.3h-2.9v-3h2.9V110.3z M97.2,119.3c0-2.2-1.3-3.9-3.3-3.9
			s-3.2,1.6-3.2,3.8s1.4,3.9,3.3,3.9S97.2,121.5,97.2,119.3z M97.9,110.3H95v-3h2.9L97.9,110.3z"/>
		<path class="st0" d="M113.8,125.8h-11.3v-3h2.5c-0.3-0.7-0.5-1.5-0.5-2.2c0-1.3,0.5-2.6,1.4-3.6c0.9-1,2.2-1.5,3.5-1.5
			c1.8,0,3.4,1,4.2,2.7l-2.1,1.5c-0.2-0.9-1-1.5-1.9-1.4c-0.6,0-1.2,0.3-1.6,0.8c-0.3,0.5-0.5,1.1-0.5,1.8c0,0.7,0.2,1.4,0.7,2h5.7
			L113.8,125.8z"/>
		<path class="st0" d="M124.4,125.8H121c-1.3,0.1-2.5-0.4-3.3-1.4c-0.8-1-1.1-2.2-1.1-3.5v-12.3h3v11.1c-0.1,0.9,0.2,1.9,0.9,2.6
			c0.7,0.4,1.5,0.5,2.3,0.4h1.8L124.4,125.8z"/>
		<path class="st0" d="M141.5,125.8h-3c-2.1,0.1-4.2-0.4-5.9-1.5c-1.8,1.1-3.8,1.6-5.9,1.5h-3.3v-3h3.1c0.8,0.1,1.7,0,2.5-0.3
			c-0.9-0.6-1.6-1.5-2-2.5c-0.4-0.9-0.6-1.8-0.6-2.8c0-0.6,0.1-1.2,0.3-1.8c0.9-2.5,3.2-4.1,5.9-4.1c3,0,6.2,2,6.2,5.8
			c0,1-0.2,1.9-0.6,2.8c-0.4,1-1.1,1.8-1.9,2.5c0.8,0.3,1.6,0.4,2.5,0.3h2.8L141.5,125.8z M134.3,120.4c1.1-0.8,1.8-2,1.8-3.4
			c0-0.8-0.3-1.7-0.8-2.3c-1.2-1.4-3.4-1.6-4.8-0.4c-0.8,0.7-1.2,1.7-1.2,2.7c0,1.4,0.6,2.6,1.8,3.4c0.5,0.4,1.1,0.7,1.7,1
			C133.2,121.1,133.7,120.7,134.3,120.4z M134,109.2h-3v-3h3V109.2z"/>
		<path class="st0" d="M161.5,125.8h-21v-3h14.6c0-1.5-0.5-3-1.4-4.2c-1.1-1.4-2.8-2.1-4.6-2H143l5.2-7.9h3.5l-3.6,5.1h1.3
			c1.7,0,3.4,0.4,4.9,1.3c2.4,1.5,3.8,4.1,4,7.8h3.2L161.5,125.8z"/>
		<path class="st0" d="M168.3,120.9c0,3.2-1.5,4.8-4.5,4.8h-3.1v-3h2.5c1,0,1.6-0.3,1.9-0.9c0.2-0.6,0.3-1.3,0.2-1.9v-11.4h3
			L168.3,120.9z"/>
		<path class="st0" d="M194.9,121.1c0.1,2.4-0.9,4.8-2.7,6.5c-1.7,1.7-4.1,2.7-6.5,2.6h-0.2c-2.4,0.1-4.8-0.9-6.5-2.6
			c-1.7-1.7-2.7-4.1-2.6-6.5v-3h3v2.6c-0.1,1.7,0.5,3.4,1.6,4.7c1.2,1.3,2.9,2,4.7,1.9c3.9,0,6-2.1,6.3-6.2h-7c0-5.6,3.2-8.7,9-8.7
			v2.8c-1.1-0.1-2.3,0.1-3.4,0.6c-1,0.5-1.8,1.4-2.2,2.5h6.6L194.9,121.1z M184.5,136.1h-2.9v-3h2.9V136.1z M189.5,136.1h-2.9v-3
			h2.9V136.1z"/>
		<path class="st0" d="M210,125.8h-12.6v-3h9.6c0-3.5-1.4-5.5-4-6.1c-0.9-0.2-1.8-0.3-2.7-0.2v-2.7c1.5,0,2.4,0,2.8,0
			c0.5,0.1,1.1,0.2,1.6,0.4c3.6,1.2,5.3,4.1,5.4,8.6L210,125.8z"/>
		<path class="st0" d="M227.7,125.8h-3.6c-0.4,2.9-2.4,4.4-5.8,4.4v-2.4c1.4,0.2,2.6-0.7,3-2h-2.9c-3.3-0.1-5.9-2.9-5.8-6.2
			c0,0,0,0,0,0c-0.1-3.2,2.4-5.8,5.5-5.9c0.2,0,0.3,0,0.5,0c3.2,0,5.5,2.5,5.5,6v3.1h3.7L227.7,125.8z M221.1,122.8v-3.7
			c0-1.5-1.1-2.7-2.6-2.7c0,0,0,0-0.1,0c-1.5-0.1-2.8,1.1-2.9,2.7c0,0.1,0,0.2,0,0.3c-0.1,1.7,1.2,3.2,2.9,3.3L221.1,122.8z"/>
		<path class="st0" d="M247.1,125.8h-5.7c-0.8,0-1.6-0.3-2.4-0.7c-0.6-0.3-1.2-0.7-1.7-1.3c-1.7,1.2-3.8,1.9-5.9,1.9H227v-3h4.4
			c0.7,0,1.4,0,2.1-0.2c0.7-0.2,1.3-0.4,1.9-0.8c-0.6-0.8-1.4-1.5-2.3-2c-1-0.7-2-1.1-3.1-1.4v-2.8c2.1-1.4,4.6-2.2,7.2-2.2
			c2.8,0,5.5,0.9,7.6,2.8c-0.5,1.1-1.1,2.1-1.9,3c-0.9,1.1-1.9,2.2-3.1,3c0.3,0.3,0.7,0.6,1.1,0.7c0.4,0.1,0.8,0.1,1.2,0.1h5
			L247.1,125.8z M241.1,116.9c-1.2-0.7-2.5-1.1-3.8-1.1c-1.4,0-2.9,0.4-4.1,1.1c1.8,0.6,3.3,1.7,4.5,3.2c0.7-0.4,1.4-0.9,1.9-1.5
			C240.2,118.2,240.7,117.6,241.1,116.9z"/>
		<path class="st0" d="M246.1,125.8v-3h2.7c1.5,0,2.3-1.1,2.2-3.2v-5.9h3v5.8c0.1,1-0.1,2.1-0.5,3.1v0.2h2.8c1.5,0,2.3-1,2.3-3v-6.1
			h3v5.8c0,1.7-0.2,2.8-0.6,3.2h3c1.5,0,2.3-1,2.3-2.9v-6.1h3v5.8c0,1.1-0.2,2.3-0.7,3.3h4.6v3L246.1,125.8z"/>
		<path class="st0" d="M279.8,120.9c0,3.2-1.5,4.8-4.5,4.8h-3.1v-3h2.5c1,0,1.6-0.3,1.9-0.9c0.2-0.6,0.3-1.3,0.2-1.9v-11.4h3
			L279.8,120.9z"/>
		<path class="st0" d="M285.5,125.8h-2.9v-17.2h2.9V125.8z"/>
		<path class="st0" d="M305.1,125.8h-4.8c-0.5,2.8-2.9,4.4-6.5,4.4v-2.6c2.5,0,3.7-1.2,3.7-3.8v-10.2h3v9.1h4.6L305.1,125.8z
			 M300.5,111.2h-2.9v-2.9h2.9V111.2z"/>
		<path class="st0" d="M321.9,123.9v1.9h-17.8v-3h14.6c0-1.5-0.5-3-1.4-4.2c-1.1-1.4-2.8-2.1-4.6-2h-6.1l5.2-7.9h3.5l-3.6,5.1h1.3
			c1.8,0,3.6,0.5,5.1,1.5C320.7,116.8,321.9,119.7,321.9,123.9z"/>
		<path class="st0" d="M335.1,125.8h-4.8c-0.5,2.8-2.9,4.4-6.5,4.4v-2.6c2.5,0,3.7-1.2,3.7-3.8v-10.2h3v9.1h4.6L335.1,125.8z"/>
		<path class="st0" d="M351.5,125.8h-3.8c-1.1,1.5-2.9,2.4-4.8,2.3c-1.9,0.1-3.7-0.8-4.8-2.3h-4.1v-3h2.9c0-0.3,0-0.6,0-0.9
			c-0.1-1.6,0.5-3.2,1.7-4.4c1.1-1.2,2.7-1.8,4.3-1.7c1.6-0.1,3.2,0.6,4.3,1.8c1.1,1.2,1.7,2.8,1.6,4.4v0.8h2.7L351.5,125.8z
			 M345.8,121.9c0-0.9-0.2-1.7-0.7-2.4c-0.5-0.7-1.4-1.1-2.3-1.1c-0.9,0-1.7,0.4-2.1,1.1c-0.5,0.7-0.7,1.5-0.7,2.3
			c0,1.9,1.2,3.5,3,3.5c0.8,0,1.6-0.3,2.1-1C345.6,123.6,345.8,122.8,345.8,121.9z"/>
		<path class="st0" d="M358.2,120.9c0,3.2-1.5,4.8-4.5,4.8h-3.1v-3h2.5c1,0,1.6-0.3,1.9-0.9c0.2-0.6,0.3-1.3,0.2-1.9v-11.4h3
			L358.2,120.9z"/>
		<path class="st0" d="M363.9,125.8H361v-17.2h3L363.9,125.8z"/>
		<path class="st0" d="M3.2,153.5c0,0.6,0.1,1.2,0.4,1.8c0.2,0.5,0.6,0.9,1,1.2c0.4,0.3,0.9,0.6,1.5,0.7c0.6,0.1,1.2,0.2,1.8,0.2
			c0.6,0,1.2-0.1,1.8-0.2c0.4-0.1,0.8-0.3,1.2-0.6c0.3-0.2,0.5-0.5,0.7-0.9c0.1-0.3,0.2-0.7,0.2-1c0.1-0.6-0.1-1.1-0.5-1.6
			c-0.3-0.3-0.6-0.5-1-0.7c-0.7-0.3-1.5-0.5-2.2-0.7c-0.9-0.2-1.9-0.5-3.2-0.8c-0.7-0.2-1.3-0.4-1.9-0.8c-0.5-0.3-0.9-0.6-1.3-1.1
			c-0.3-0.4-0.5-0.8-0.7-1.3c-0.1-0.5-0.2-0.9-0.2-1.4c0-0.8,0.2-1.7,0.6-2.4c0.4-0.7,0.9-1.3,1.5-1.7c0.6-0.5,1.4-0.8,2.1-1
			c0.8-0.2,1.6-0.3,2.4-0.3c0.9,0,1.8,0.1,2.7,0.4c0.8,0.2,1.6,0.6,2.2,1.1c1.4,1,2.1,2.6,2.1,4.3h-3.2c0-1-0.4-1.9-1.2-2.5
			c-0.8-0.5-1.8-0.8-2.7-0.7c-0.4,0-0.8,0-1.2,0.1c-0.4,0.1-0.7,0.2-1.1,0.4c-0.3,0.2-0.6,0.4-0.8,0.7c-0.2,0.3-0.3,0.7-0.3,1.1
			c0,0.6,0.2,1.1,0.6,1.5c0.4,0.4,1,0.7,1.6,0.8l0.8,0.2l1.6,0.4l1.7,0.4l1.2,0.3c0.6,0.2,1.1,0.4,1.6,0.8c0.4,0.3,0.8,0.7,1.1,1.1
			c0.3,0.4,0.5,0.9,0.7,1.3c0.1,0.5,0.2,0.9,0.2,1.4c0,0.9-0.2,1.8-0.6,2.6c-0.4,0.7-1,1.3-1.6,1.8c-0.7,0.5-1.5,0.8-2.3,1
			c-0.9,0.2-1.8,0.3-2.7,0.3c-1,0-2-0.1-2.9-0.4c-0.9-0.2-1.7-0.6-2.4-1.2c-0.7-0.5-1.2-1.2-1.6-2c-0.4-0.9-0.6-1.9-0.6-3H3.2z"/>
		<path class="st0" d="M28.3,156.6c0,0.3,0,0.5,0.1,0.8c0.1,0.2,0.3,0.3,0.5,0.2h0.3c0.1,0,0.3,0,0.4-0.1v2l-0.4,0.1l-0.5,0.1
			c-0.2,0-0.3,0.1-0.5,0.1h-0.4c-0.5,0-1-0.1-1.5-0.4c-0.4-0.3-0.7-0.7-0.8-1.3c-0.6,0.6-1.3,1-2.1,1.2c-0.8,0.2-1.6,0.4-2.4,0.4
			c-0.6,0-1.2-0.1-1.7-0.2c-0.5-0.1-1-0.4-1.4-0.7c-0.4-0.3-0.8-0.7-1-1.2c-0.3-0.5-0.4-1.1-0.4-1.7c0-0.7,0.1-1.4,0.5-2
			c0.3-0.5,0.7-0.9,1.2-1.2c0.5-0.3,1-0.5,1.6-0.6c0.6-0.1,1.2-0.2,1.8-0.3c0.5-0.1,1-0.2,1.5-0.2c0.4,0,0.9-0.1,1.3-0.2
			c0.3-0.1,0.6-0.2,0.9-0.5c0.2-0.3,0.4-0.6,0.3-1c0-0.3-0.1-0.6-0.3-0.9c-0.2-0.2-0.4-0.4-0.7-0.5c-0.3-0.1-0.6-0.2-0.9-0.3
			c-0.3,0-0.6-0.1-0.9-0.1c-0.7,0-1.4,0.2-2,0.5c-0.5,0.4-0.9,0.9-0.9,1.6H17c0-0.7,0.2-1.5,0.6-2.1c0.4-0.5,0.8-1,1.4-1.3
			c0.6-0.3,1.2-0.6,1.9-0.7c0.7-0.1,1.4-0.2,2.1-0.2c0.6,0,1.3,0.1,1.9,0.2c0.6,0.1,1.2,0.4,1.7,0.7c0.5,0.3,0.9,0.7,1.2,1.2
			c0.3,0.5,0.5,1.1,0.5,1.8L28.3,156.6z M25.4,152.9c-0.5,0.3-1.1,0.5-1.6,0.5c-0.7,0.1-1.3,0.1-2,0.3c-0.3,0-0.6,0.1-0.9,0.2
			c-0.3,0.1-0.5,0.2-0.8,0.4c-0.2,0.2-0.4,0.4-0.5,0.6c-0.1,0.3-0.2,0.6-0.2,0.9c0,0.3,0.1,0.6,0.3,0.8c0.2,0.2,0.4,0.4,0.7,0.5
			c0.3,0.1,0.6,0.2,0.9,0.3c0.3,0.1,0.6,0.1,0.9,0.1c0.3,0,0.7,0,1-0.1c0.4-0.1,0.7-0.2,1.1-0.4c0.3-0.2,0.6-0.5,0.8-0.8
			c0.2-0.3,0.3-0.8,0.3-1.2L25.4,152.9z"/>
		<path class="st0" d="M43,159.6h-2.8v-1.8l0,0c-0.4,0.7-0.9,1.2-1.6,1.6c-0.6,0.4-1.4,0.6-2.2,0.6c-1.4,0.1-2.8-0.3-3.8-1.3
			c-0.9-1.1-1.3-2.5-1.2-3.9v-8.4h2.9v8.1c-0.1,0.9,0.1,1.7,0.6,2.5c0.5,0.5,1.2,0.7,1.9,0.7c0.5,0,1.1-0.1,1.5-0.3
			c0.4-0.2,0.7-0.4,1-0.8c0.3-0.3,0.5-0.7,0.6-1.1c0.1-0.5,0.1-1,0.1-1.4v-7.7H43V159.6z"/>
		<path class="st0" d="M58.5,159.6h-2.8v-1.8l0,0c-0.4,0.7-1,1.3-1.7,1.6c-0.7,0.3-1.6,0.5-2.4,0.5c-0.9,0-1.9-0.2-2.7-0.6
			c-0.7-0.3-1.4-0.9-1.9-1.5c-0.5-0.7-0.9-1.4-1.2-2.2c-0.3-0.9-0.4-1.8-0.4-2.8c0-1.1,0.1-2.1,0.5-3.1c0.3-0.8,0.7-1.5,1.3-2.1
			c0.5-0.5,1.1-1,1.8-1.2c0.7-0.3,1.4-0.4,2.1-0.4c0.4,0,0.8,0,1.3,0.1c0.4,0.1,0.8,0.2,1.2,0.4c0.4,0.2,0.8,0.4,1.1,0.6
			c0.3,0.3,0.6,0.6,0.8,0.9l0,0v-6.7h2.9L58.5,159.6z M48.3,153.1c0,0.6,0.1,1.1,0.2,1.7c0.1,0.5,0.4,1,0.7,1.4
			c0.3,0.4,0.7,0.8,1.1,1c1.5,0.8,3.5,0.4,4.5-1.1c0.3-0.5,0.5-1,0.7-1.5c0.1-0.6,0.2-1.1,0.2-1.7c0.1-1.2-0.3-2.4-1-3.4
			c-1.1-1.3-2.9-1.6-4.4-0.8c-0.5,0.3-0.9,0.7-1.2,1.1c-0.3,0.5-0.5,1-0.6,1.5C48.4,151.9,48.3,152.5,48.3,153.1z"/>
		<path class="st0" d="M61.7,141.3h2.9v2.8h-2.9V141.3z M61.7,146.3h2.9v13.2h-2.9V146.3z"/>
		<path class="st0" d="M75.3,141.3h13.1v2.8h-9.9v4.8h9.2v2.6h-9.2v5.3h10.1v2.8H75.3V141.3z"/>
		<path class="st0" d="M91,146.4h2.8v1.9v0.1c0.4-0.7,1-1.3,1.7-1.7c0.7-0.4,1.6-0.6,2.4-0.6c1.2-0.1,2.5,0.3,3.4,1.1
			c0.9,0.9,1.4,2.1,1.2,3.4v9.1h-2.9v-8.3c0.1-0.8-0.2-1.6-0.6-2.3c-0.5-0.5-1.2-0.8-1.9-0.7c-0.5,0-0.9,0.1-1.3,0.3
			c-0.4,0.2-0.7,0.4-1,0.7c-0.3,0.3-0.5,0.7-0.6,1.1c-0.2,0.4-0.2,0.9-0.2,1.4v7.8H91V146.4z"/>
		<path class="st0" d="M107.9,153.7c0,0.5,0.1,1,0.2,1.5c0.1,0.5,0.4,0.9,0.6,1.2c0.3,0.4,0.7,0.6,1.1,0.9c0.5,0.2,1,0.3,1.6,0.3
			c0.7,0,1.5-0.2,2.1-0.6c0.5-0.4,0.9-1,1.2-1.6h2.8c-0.1,0.7-0.4,1.3-0.8,1.9c-0.4,0.5-0.8,1-1.3,1.4c-0.5,0.4-1.1,0.7-1.8,0.9
			c-0.7,0.2-1.4,0.3-2.1,0.3c-0.9,0-1.9-0.2-2.7-0.5c-0.8-0.3-1.4-0.8-2-1.4c-0.6-0.6-1-1.4-1.2-2.2c-0.3-0.9-0.4-1.8-0.4-2.8
			c0-0.9,0.1-1.8,0.4-2.7c0.3-0.8,0.7-1.6,1.3-2.2c1.2-1.4,2.9-2.1,4.7-2.1c1.9,0,3.7,0.9,4.8,2.4c0.6,0.7,1,1.6,1.2,2.5
			c0.3,0.9,0.3,1.9,0.2,2.9L107.9,153.7z M114.7,151.8c0-0.5-0.1-0.9-0.3-1.3c-0.2-0.4-0.4-0.8-0.7-1.1c-0.3-0.3-0.6-0.6-1-0.8
			c-0.4-0.2-0.9-0.3-1.3-0.3c-0.5,0-1,0.1-1.4,0.3c-0.4,0.2-0.8,0.4-1.1,0.7c-0.3,0.3-0.5,0.7-0.7,1.1c-0.2,0.4-0.3,0.9-0.3,1.4
			H114.7z"/>
		<path class="st0" d="M119.8,146.4h2.7v2.6l0,0c0.1-0.4,0.3-0.7,0.5-1.1c0.3-0.3,0.6-0.7,0.9-0.9c0.4-0.3,0.8-0.5,1.2-0.7
			c0.4-0.2,0.8-0.3,1.3-0.3c0.4,0,0.6,0,0.7,0l0.4,0.1v2.8c-0.2,0-0.4-0.1-0.6-0.1s-0.4,0-0.6,0c-0.5,0-1,0.1-1.4,0.3
			c-0.4,0.2-0.8,0.5-1.1,0.9c-0.3,0.4-0.6,0.9-0.8,1.4c-0.2,0.6-0.3,1.3-0.3,1.9v6.3h-2.9L119.8,146.4z"/>
		<path class="st0" d="M141,158.9c0.1,1.7-0.5,3.3-1.7,4.4c-1.4,1.1-3.1,1.6-4.8,1.5c-0.7,0-1.3-0.1-2-0.2c-0.6-0.1-1.3-0.4-1.8-0.7
			c-0.6-0.3-1-0.8-1.4-1.3c-0.4-0.6-0.6-1.2-0.7-1.9h2.9c0.1,0.4,0.2,0.7,0.4,1c0.2,0.3,0.4,0.5,0.7,0.6c0.3,0.1,0.6,0.2,0.9,0.3
			c0.4,0,0.7,0,1.1,0c0.9,0.1,1.9-0.2,2.6-0.9c0.6-0.7,0.9-1.6,0.8-2.5v-2H138c-0.4,0.7-1,1.3-1.7,1.7c-0.7,0.4-1.5,0.6-2.3,0.6
			c-0.9,0-1.8-0.2-2.7-0.6c-0.7-0.3-1.4-0.9-1.8-1.5c-0.5-0.7-0.9-1.4-1.1-2.2c-0.2-0.9-0.3-1.8-0.3-2.7c0-0.9,0.1-1.7,0.4-2.5
			c0.3-0.8,0.7-1.5,1.2-2.1c0.5-0.6,1.2-1.1,1.9-1.4c0.8-0.4,1.6-0.6,2.5-0.5c0.8,0,1.6,0.2,2.3,0.5c0.7,0.4,1.3,0.9,1.6,1.6h0.1
			v-1.8h2.9V158.9z M134.6,157.2c0.6,0,1.1-0.1,1.6-0.4c0.4-0.3,0.8-0.6,1.1-1.1c0.3-0.4,0.5-1,0.6-1.5c0.1-0.5,0.2-1.1,0.2-1.7
			c0-0.6-0.1-1.1-0.2-1.6c-0.1-0.5-0.3-1-0.6-1.4c-0.3-0.4-0.7-0.8-1.1-1c-0.5-0.2-1.1-0.4-1.6-0.4c-0.6,0-1.1,0.1-1.6,0.4
			c-0.4,0.3-0.8,0.6-1.1,1.1c-0.3,0.5-0.5,1-0.6,1.5c-0.1,0.5-0.2,1.1-0.2,1.6c0,0.5,0.1,1.1,0.2,1.6c0.1,0.5,0.3,1,0.6,1.4
			c0.3,0.4,0.6,0.8,1.1,1C133.5,157.1,134,157.3,134.6,157.2L134.6,157.2z"/>
		<path class="st0" d="M142.5,146.4h3.2l3.5,9.9l0,0l3.3-9.9h3l-5.1,13.9l-0.7,1.7c-0.2,0.5-0.5,1-0.8,1.4c-0.3,0.4-0.8,0.8-1.2,1
			c-0.6,0.3-1.2,0.4-1.9,0.4c-0.7,0-1.3-0.1-2-0.1v-2.4l0.7,0.1c0.2,0,0.5,0.1,0.7,0.1c0.3,0,0.6,0,0.9-0.1c0.2-0.1,0.4-0.2,0.5-0.4
			c0.2-0.2,0.3-0.4,0.4-0.6c0.1-0.2,0.2-0.5,0.3-0.8l0.3-1L142.5,146.4z"/>
		<path class="st0" d="M164.7,141.3h13.1v2.8h-9.9v4.8h9.1v2.6h-9.2v5.3H178v2.8h-13.3V141.3z"/>
		<path class="st0" d="M179,146.4h2.2v-1.1c0-0.7,0.1-1.4,0.3-2c0.2-0.5,0.5-0.9,0.8-1.2c0.3-0.3,0.7-0.5,1.2-0.6
			c0.4-0.1,0.9-0.1,1.4-0.1c0.7,0,1.3,0,2,0.2v2.3c-0.2,0-0.4-0.1-0.6-0.1c-0.2,0-0.5,0-0.8,0c-0.4,0-0.7,0.1-1,0.3
			c-0.3,0.3-0.5,0.7-0.4,1.1v1.4h2.5v2.2h-2.5v11h-2.9v-11H179V146.4z"/>
		<path class="st0" d="M187.1,146.4h2.2v-1.1c0-0.7,0.1-1.4,0.3-2c0.2-0.5,0.4-0.9,0.8-1.2c0.3-0.3,0.7-0.5,1.2-0.6
			c0.4-0.1,0.9-0.1,1.4-0.1c0.7,0,1.4,0,2.1,0.2v2.3c-0.2,0-0.4-0.1-0.6-0.1c-0.2,0-0.5,0-0.7,0c-0.4,0-0.7,0.1-1,0.3
			c-0.3,0.3-0.5,0.7-0.4,1.1v1.4h2.5v2.2h-2.5v11h-2.9v-11h-2.2L187.1,146.4z M196.5,141.4h2.9v2.8h-2.9V141.4z M196.5,146.4h2.9
			v13.2h-2.9V146.4z"/>
		<path class="st0" d="M211.5,150.8c-0.1-0.7-0.4-1.4-1-1.9c-0.6-0.4-1.3-0.7-2-0.6c-0.4,0-0.8,0.1-1.2,0.2
			c-0.4,0.1-0.8,0.4-1.2,0.7c-0.4,0.4-0.7,0.9-0.9,1.5c-0.3,0.8-0.4,1.6-0.4,2.4c0,0.6,0.1,1.1,0.2,1.6c0.1,0.5,0.3,1,0.6,1.4
			c0.3,0.4,0.7,0.8,1.1,1c0.5,0.3,1,0.4,1.6,0.4c0.8,0,1.5-0.3,2.1-0.8c0.6-0.6,0.9-1.4,1-2.2h2.9c-0.2,1.5-0.8,2.9-1.9,3.9
			c-1.2,0.9-2.6,1.4-4.1,1.4c-0.9,0-1.9-0.2-2.8-0.5c-1.5-0.7-2.7-2-3.2-3.6c-0.3-0.9-0.4-1.8-0.4-2.7c0-0.9,0.1-1.9,0.4-2.8
			c0.2-0.8,0.7-1.6,1.2-2.3c0.5-0.6,1.2-1.2,2-1.5c0.9-0.4,1.9-0.6,2.9-0.6c0.7,0,1.5,0.1,2.2,0.3c0.7,0.2,1.3,0.5,1.8,0.9
			c0.5,0.4,1,0.9,1.3,1.5c0.4,0.7,0.6,1.4,0.6,2.1L211.5,150.8z"/>
		<path class="st0" d="M216.8,141.3h2.9v2.8h-2.9V141.3z M216.8,146.3h2.9v13.2h-2.9V146.3z"/>
		<path class="st0" d="M225.2,153.7c0,0.5,0.1,1,0.2,1.5c0.1,0.5,0.4,0.9,0.7,1.2c0.3,0.4,0.7,0.6,1.1,0.9c0.5,0.2,1,0.3,1.6,0.3
			c0.7,0,1.4-0.2,2.1-0.6c0.6-0.4,1-1,1.2-1.6h2.8c-0.1,0.7-0.4,1.3-0.8,1.9c-0.4,0.5-0.8,1-1.4,1.4c-0.5,0.4-1.1,0.7-1.8,0.9
			c-1.6,0.5-3.3,0.4-4.8-0.2c-0.8-0.3-1.4-0.8-2-1.4c-0.6-0.6-1-1.4-1.2-2.2c-0.3-0.9-0.4-1.9-0.4-2.8c0-0.9,0.1-1.8,0.4-2.7
			c0.3-0.8,0.7-1.6,1.3-2.2c0.6-0.6,1.2-1.1,2-1.5c0.8-0.4,1.7-0.6,2.6-0.6c1,0,1.9,0.2,2.8,0.7c0.8,0.4,1.5,1,2.1,1.7
			c0.5,0.7,1,1.6,1.2,2.5c0.2,0.9,0.3,1.9,0.2,2.9L225.2,153.7z M231.9,151.8c0-0.5-0.1-0.9-0.3-1.3c-0.2-0.4-0.4-0.8-0.7-1.1
			c-0.3-0.3-0.6-0.6-1-0.8c-0.4-0.2-0.9-0.3-1.3-0.3c-0.5,0-0.9,0.1-1.4,0.3c-0.4,0.2-0.8,0.4-1.1,0.7c-0.3,0.3-0.6,0.7-0.7,1.1
			c-0.2,0.4-0.3,0.9-0.3,1.4H231.9z"/>
		<path class="st0" d="M237.1,146.4h2.8v1.9v0.1c0.4-0.7,1-1.3,1.7-1.7c0.7-0.4,1.6-0.6,2.4-0.6c1.2-0.1,2.5,0.3,3.4,1.1
			c0.9,0.9,1.3,2.1,1.2,3.4v9.1h-2.9v-8.3c0-0.8-0.2-1.6-0.7-2.3c-0.5-0.5-1.2-0.8-1.9-0.7c-0.5,0-0.9,0.1-1.3,0.3
			c-0.4,0.2-0.7,0.4-1,0.7c-0.3,0.3-0.5,0.7-0.6,1.1c-0.1,0.4-0.2,0.9-0.2,1.4v7.8h-2.9L237.1,146.4z"/>
		<path class="st0" d="M260.6,150.8c-0.1-0.7-0.4-1.4-1-1.9c-0.6-0.4-1.3-0.6-2-0.6c-0.4,0-0.8,0.1-1.2,0.2
			c-0.4,0.1-0.8,0.4-1.2,0.7c-0.4,0.4-0.7,0.9-0.9,1.5c-0.3,0.8-0.4,1.6-0.4,2.4c0,0.6,0.1,1.1,0.2,1.6c0.1,0.5,0.3,1,0.6,1.4
			c0.3,0.4,0.7,0.8,1.1,1c0.5,0.3,1,0.4,1.6,0.4c0.8,0,1.5-0.3,2.1-0.8c0.6-0.6,0.9-1.4,1-2.2h2.9c-0.2,1.5-0.9,2.9-2,3.9
			c-1.1,1-2.6,1.4-4.1,1.4c-0.9,0-1.9-0.2-2.7-0.5c-0.8-0.3-1.4-0.8-2-1.4c-0.6-0.6-1-1.4-1.2-2.1c-0.6-1.8-0.6-3.7,0-5.5
			c0.2-0.8,0.7-1.6,1.2-2.3c0.5-0.6,1.2-1.2,2-1.5c0.9-0.4,1.9-0.6,2.9-0.6c0.7,0,1.5,0.1,2.2,0.3c0.7,0.2,1.3,0.5,1.9,0.9
			c0.5,0.4,1,0.9,1.3,1.5c0.4,0.6,0.6,1.4,0.6,2.1L260.6,150.8z"/>
		<path class="st0" d="M264.5,146.4h3.2l3.5,9.9l0,0l3.3-9.9h3l-5.1,13.9c-0.2,0.6-0.5,1.2-0.7,1.7c-0.2,0.5-0.5,1-0.8,1.4
			c-0.3,0.4-0.8,0.8-1.2,1c-0.6,0.3-1.2,0.4-1.9,0.4c-0.7,0-1.3-0.1-2-0.1v-2.4l0.7,0.1c0.2,0,0.5,0.1,0.7,0.1c0.3,0,0.6,0,0.9-0.1
			c0.2-0.1,0.4-0.2,0.5-0.4c0.2-0.2,0.3-0.4,0.4-0.6c0.1-0.2,0.2-0.5,0.3-0.8l0.3-1L264.5,146.4z"/>
		<path class="st0" d="M299,147.1c-0.1-0.5-0.3-1-0.6-1.4c-0.2-0.4-0.5-0.8-0.9-1.1c-0.4-0.3-0.8-0.6-1.3-0.8
			c-0.6-0.2-1.2-0.3-1.8-0.3c-0.9,0-1.7,0.2-2.5,0.6c-0.7,0.4-1.3,0.9-1.7,1.6c-0.5,0.7-0.8,1.4-1,2.2c-0.2,0.8-0.3,1.7-0.3,2.6
			c0,0.9,0.1,1.7,0.3,2.6c0.2,0.8,0.5,1.6,1,2.2c0.9,1.4,2.5,2.2,4.2,2.2c0.7,0,1.3-0.1,1.9-0.4c0.5-0.2,1-0.6,1.4-1
			c0.4-0.4,0.7-1,0.9-1.5c0.2-0.6,0.4-1.2,0.4-1.9h3.1c-0.1,1-0.3,2.1-0.7,3c-0.4,0.9-0.9,1.7-1.6,2.3c-0.7,0.7-1.5,1.2-2.4,1.5
			c-1,0.4-2,0.5-3,0.5c-1.3,0-2.5-0.2-3.7-0.8c-1.1-0.5-2-1.2-2.7-2.1c-0.8-0.9-1.3-1.9-1.7-3c-0.8-2.4-0.8-5,0-7.4
			c0.4-1.1,1-2.1,1.7-3c0.8-0.9,1.7-1.6,2.7-2.1c1.1-0.5,2.4-0.8,3.7-0.8c1,0,1.9,0.1,2.9,0.4c0.9,0.3,1.7,0.7,2.4,1.2
			c0.7,0.5,1.3,1.2,1.7,1.9c0.4,0.8,0.7,1.7,0.8,2.6L299,147.1z"/>
		<path class="st0" d="M307,153.7c0,0.5,0.1,1,0.2,1.5c0.1,0.5,0.4,0.9,0.6,1.2c0.3,0.4,0.7,0.6,1.1,0.9c0.5,0.2,1,0.3,1.6,0.3
			c0.7,0,1.4-0.2,2-0.6c0.6-0.4,1-1,1.2-1.6h2.8c-0.1,0.7-0.4,1.3-0.8,1.9c-0.4,0.5-0.8,1-1.4,1.4c-0.5,0.4-1.1,0.7-1.8,0.9
			c-0.7,0.2-1.4,0.3-2,0.3c-0.9,0-1.9-0.2-2.8-0.5c-0.8-0.3-1.4-0.8-2-1.4c-0.6-0.6-1-1.4-1.3-2.2c-0.3-0.9-0.5-1.8-0.5-2.8
			c0-0.9,0.1-1.8,0.4-2.7c0.3-0.8,0.7-1.6,1.3-2.2c0.6-0.6,1.2-1.2,2-1.5c0.8-0.4,1.7-0.6,2.6-0.6c1,0,1.9,0.2,2.8,0.7
			c0.8,0.4,1.5,1,2,1.7c0.6,0.7,1,1.6,1.2,2.5c0.3,0.9,0.3,1.9,0.2,2.9L307,153.7z M313.8,151.8c0-0.5-0.1-0.9-0.3-1.3
			c-0.1-0.4-0.4-0.8-0.7-1.1c-0.3-0.3-0.6-0.6-1-0.8c-0.4-0.2-0.9-0.3-1.3-0.3c-0.9,0-1.8,0.3-2.5,1c-0.3,0.3-0.5,0.7-0.7,1.1
			c-0.2,0.4-0.3,0.9-0.3,1.4L313.8,151.8z"/>
		<path class="st0" d="M318.9,146.4h2.8v1.9l0,0.1c0.4-0.7,1-1.3,1.7-1.7c0.7-0.4,1.5-0.6,2.4-0.6c1.2-0.1,2.5,0.3,3.4,1.1
			c0.9,0.9,1.3,2.1,1.2,3.4v9.1h-2.9v-8.3c0-0.8-0.2-1.6-0.7-2.3c-0.5-0.5-1.2-0.8-1.9-0.7c-0.5,0-0.9,0.1-1.3,0.3
			c-0.4,0.2-0.7,0.4-1,0.7c-0.3,0.3-0.5,0.7-0.6,1.1c-0.2,0.4-0.2,0.9-0.2,1.4v7.8h-2.9L318.9,146.4z"/>
		<path class="st0" d="M332.2,146.4h2.2v-4h2.9v3.9h2.6v2.2h-2.6v7c0,0.3,0,0.5,0,0.8c0,0.2,0.1,0.4,0.2,0.6
			c0.1,0.2,0.3,0.3,0.4,0.4c0.2,0.1,0.5,0.1,0.8,0.1h0.6c0.2,0,0.4,0,0.6-0.1v2.2l-0.9,0.1c-0.3,0-0.7,0-1,0c-0.6,0-1.2,0-1.9-0.2
			c-0.4-0.1-0.8-0.3-1.1-0.6c-0.3-0.3-0.5-0.7-0.5-1.1c-0.1-0.5-0.1-1-0.1-1.5v-7.8h-2.2L332.2,146.4z"/>
		<path class="st0" d="M344.3,153.7c0,0.5,0.1,1,0.2,1.5c0.1,0.5,0.4,0.9,0.6,1.2c0.3,0.4,0.7,0.6,1.1,0.9c0.5,0.2,1,0.3,1.6,0.3
			c0.7,0,1.4-0.2,2-0.6c0.5-0.4,1-1,1.2-1.6h2.7c-0.1,0.7-0.4,1.3-0.8,1.9c-0.7,1.1-1.9,1.9-3.1,2.3c-1.6,0.5-3.3,0.4-4.8-0.2
			c-0.8-0.3-1.4-0.8-2-1.4c-0.6-0.6-1-1.4-1.2-2.2c-0.3-0.9-0.4-1.9-0.4-2.8c0-0.9,0.1-1.8,0.4-2.7c0.3-0.8,0.7-1.6,1.3-2.2
			c1.2-1.3,2.9-2.1,4.7-2.1c1.9,0,3.7,0.9,4.8,2.4c0.6,0.7,1,1.6,1.2,2.5c0.3,0.9,0.3,1.9,0.2,2.9L344.3,153.7z M351.1,151.8
			c0-0.5-0.1-0.9-0.3-1.3c-0.2-0.4-0.4-0.8-0.7-1.1c-0.3-0.3-0.6-0.6-1-0.8c-0.4-0.2-0.9-0.3-1.3-0.3c-0.5,0-1,0.1-1.4,0.3
			c-0.4,0.2-0.8,0.4-1.1,0.7c-0.3,0.3-0.5,0.7-0.7,1.1c-0.2,0.4-0.3,0.9-0.3,1.4H351.1z"/>
		<path class="st0" d="M356.2,146.4h2.7v2.6h0.1c0.1-0.4,0.3-0.7,0.5-1.1c0.3-0.3,0.6-0.7,0.9-0.9c0.4-0.3,0.8-0.5,1.2-0.7
			c0.4-0.2,0.9-0.3,1.3-0.3c0.3,0,0.6,0,0.7,0l0.4,0.1v2.8c-0.2,0-0.4-0.1-0.6-0.1s-0.4,0-0.6,0c-0.5,0-0.9,0.1-1.4,0.3
			c-0.4,0.2-0.8,0.5-1.2,0.9c-0.3,0.4-0.6,0.9-0.8,1.4c-0.2,0.6-0.3,1.3-0.3,1.9v6.3h-2.9V146.4z"/>
		<path class="st0" d="M317.3,118.5c0.3,0,0.4-0.4,0-0.4S316.9,118.5,317.3,118.5z"/>
	</g>
</g>
</svg>
