<svg xmlns="http://www.w3.org/2000/svg" viewBox="0 0 363.95 164.79"><defs><style>.cls-1{fill:#00703c;}.cls-2{fill:#231f20;}</style></defs><title>logo</title><g id="Layer_2" data-name="Layer 2"><g id="Layer_1-2" data-name="Layer 1"><g id="Layer_1-2-2" data-name="Layer 1-2"><path class="cls-1" d="M55,5.1C49.62,4,44.33,12,42.52,16.34s-8.6,19.58-10.89,26.45S23.93,49.87,21,49.87s-5.22-2.71-3.54-6.67c1.22-2.91,6.26-13.46,11.09-22.57.83-3.65,1.17-7.18-.12-8.54-3.07-3.24-5.11-.74-7.13,1s-3.95.49-5.5-.54S15,8,17.39,5.67A24.67,24.67,0,0,1,27.08,0H0V79.29H28.92c5.59-12,18.89-40.74,23.12-51.5C57.46,14.05,60,6.13,55,5.1Z"/><path class="cls-1" d="M36.76,7.16A30.46,30.46,0,0,1,45.18,0H32.53C34.6,1,36.54,3.42,36.76,7.16Z"/><path class="cls-1" d="M66.82,20.08C64.13,27.5,51.07,65.17,46.2,79.29H79.29V0h-15C68.23,4.59,69.26,13.42,66.82,20.08Z"/><path class="cls-1" d="M117,26.88a24.81,24.81,0,1,0,24.81,24.81h0A24.84,24.84,0,0,0,117,26.88Zm0,41a16.16,16.16,0,1,1,16.18-16.17A16.17,16.17,0,0,1,117,67.88Z"/><path class="cls-1" d="M339.13,34.65H326.92l14.8-21.29H331.19L310.36,43.3h28.77a16.16,16.16,0,0,1,16.15,16.16v8.39h-74c.91-.71,1.81-1.49,2.72-2.32l1.1-1,.16-.14h0a24.8,24.8,0,1,0-35.56,0v.06a44,44,0,0,0,4,3.47H224.41a9.55,9.55,0,0,1-9.53-9.54v-46h-8.65v46A18.22,18.22,0,0,0,224,76.48h27.65a60.08,60.08,0,0,0,15.8-1.74,60.08,60.08,0,0,0,15.8,1.74h80.66v-17A24.84,24.84,0,0,0,339.13,34.65ZM267.5,30.9a16.12,16.12,0,0,1,11.56,27.41c-.25.26-.52.49-.79.74s-.34.33-.53.49a30.73,30.73,0,0,1-10.28,6.17,31.23,31.23,0,0,1-10.77-6.62h0A16.12,16.12,0,0,1,267.5,30.9Z"/><path class="cls-1" d="M177.71,47.32a9.56,9.56,0,0,1,9.11,6.73l6.72-6.12a18.18,18.18,0,0,0-34,8.94v11h-9.4v8.64h42.24V67.85h-24.2v-11A9.55,9.55,0,0,1,177.71,47.32Z"/><rect class="cls-1" x="101.29" y="6.72" width="9.45" height="8.64"/><rect class="cls-1" x="120.83" y="6.72" width="9.45" height="8.64"/><rect class="cls-1" x="263.87" y="6.72" width="9.45" height="8.64"/><path class="cls-1" d="M17,125.76H13.75a5,5,0,0,1-4.83-4,4.07,4.07,0,0,1-3.4,2C2.1,123.76,0,121.2,0,117.5c0-4,2.1-6.47,5.52-6.47h6.57v8.44c0,2.09,1,3.2,3,3.2H17Zm-8-8.51V113.4H6.32c-2.09,0-3.36,1.65-3.36,4.13,0,2,1.16,3.8,2.93,3.8C7.82,121.33,9,119.52,9,117.25Zm-2.18-8.33H3.9v-3H6.83Zm5,0H8.92v-3h2.93Z"/><path class="cls-1" d="M31.72,119.62a5.81,5.81,0,0,1-5.47,6.13,4.64,4.64,0,0,1-.53,0H16.28v-3h4.23a6.64,6.64,0,0,1-.78-3.17,5.82,5.82,0,0,1,5.5-6.14,4.17,4.17,0,0,1,.5,0,5.92,5.92,0,0,1,6,5.82C31.73,119.38,31.73,119.5,31.72,119.62Zm-7.06-8.48h-2.9v-3h2.9Zm4,8.48c0-2-1.22-3.5-3-3.5s-2.85,1.32-2.85,3.4c0,1.92,1.22,3.49,3,3.49s2.84-1.4,2.84-3.39Zm1.07-8.48h-2.9v-3h2.9Z"/><path class="cls-1" d="M42.32,125.76H38.83a4,4,0,0,1-3.3-1.39,5.07,5.07,0,0,1-1.07-3.46V108.58h2.95v11.13a3,3,0,0,0,.86,2.56,4.23,4.23,0,0,0,2.29.45h1.76Z"/><path class="cls-1" d="M67,125.76H41.49v-3h5.16V108.58h2.93l-.37,9.64c2.47-3.17,5-4.61,7.86-4.61,4.49,0,6.81,3.07,6.89,9.11h3Zm-6.1-3a6,6,0,0,0,0-.85c0-3.41-1.54-5.6-4.1-5.6-3,0-6.1,2.72-7.83,6.45Z"/><path class="cls-1" d="M73.8,120.93q0,4.83-4.47,4.83H66.2v-3h2.52a1.92,1.92,0,0,0,1.9-.88,5.93,5.93,0,0,0,.2-1.92V108.58h3Z"/><path class="cls-1" d="M79.51,125.76h-3V108.55h3Z"/><path class="cls-1" d="M100.22,119.31a6.12,6.12,0,0,1-5.8,6.44h-.48a6.26,6.26,0,0,1-6.35-6.15c0-.14,0-.27,0-.41a6.31,6.31,0,1,1,12.62.11Zm-7.4-9H89.89v-3h2.93Zm4.33,9c0-2.24-1.3-3.92-3.32-3.92s-3.15,1.63-3.15,3.79,1.43,3.88,3.34,3.88S97.15,121.47,97.15,119.31Zm.73-9H95v-3h2.93Z"/><path class="cls-1" d="M113.82,125.76H102.54v-3H105a5.75,5.75,0,0,1-.46-2.24,5.2,5.2,0,0,1,1.36-3.62,4.64,4.64,0,0,1,3.52-1.49,4.41,4.41,0,0,1,4.15,2.71l-2.14,1.47a1.82,1.82,0,0,0-1.88-1.44A1.8,1.8,0,0,0,108,119a3,3,0,0,0-.47,1.76,2.85,2.85,0,0,0,.66,2h5.69Z"/><path class="cls-1" d="M124.45,125.76H121a4,4,0,0,1-3.3-1.39,5.07,5.07,0,0,1-1.07-3.46V108.58h3v11.13a3,3,0,0,0,.86,2.56,4.23,4.23,0,0,0,2.29.45h1.76Z"/><path class="cls-1" d="M141.52,125.76h-3a10.35,10.35,0,0,1-6-1.47,10,10,0,0,1-5.87,1.47h-3.29v-3h3.12a6.76,6.76,0,0,0,2.49-.29,6.15,6.15,0,0,1-2-2.46,6.62,6.62,0,0,1-.61-2.77,4.74,4.74,0,0,1,.32-1.83,6.14,6.14,0,0,1,5.86-4.1c3,0,6.2,2,6.2,5.83a6.71,6.71,0,0,1-.63,2.82,6.4,6.4,0,0,1-1.95,2.51,6.29,6.29,0,0,0,2.47.29h2.78Zm-7.25-5.41a4,4,0,0,0,1.76-3.41,3.34,3.34,0,0,0-.82-2.32,3.42,3.42,0,0,0-4.81-.38,3.45,3.45,0,0,0-1.19,2.7,4,4,0,0,0,1.75,3.41,12.19,12.19,0,0,0,1.66,1A11.5,11.5,0,0,0,134.27,120.35ZM134,109.19h-3v-3h3Z"/><path class="cls-1" d="M161.54,125.76h-21v-3h14.61a6.47,6.47,0,0,0-1.44-4.24,5.65,5.65,0,0,0-4.61-2H143l5.25-7.88h3.54l-3.61,5.08h1.32a9.21,9.21,0,0,1,4.86,1.28c2.42,1.49,3.76,4.07,4,7.78h3.2Z"/><path class="cls-1" d="M168.3,120.93c0,3.22-1.5,4.83-4.48,4.83h-3.15v-3h2.54c1,0,1.6-.29,1.88-.88a5.65,5.65,0,0,0,.22-1.92V108.58h3Z"/><path class="cls-1" d="M194.9,121.06a8.71,8.71,0,0,1-2.66,6.51,8.88,8.88,0,0,1-6.5,2.6h-.19a8.93,8.93,0,0,1-6.52-2.6,8.76,8.76,0,0,1-2.64-6.51v-3h3v2.63a6.67,6.67,0,0,0,1.59,4.72,5.9,5.9,0,0,0,4.66,1.87c3.88,0,6-2.08,6.3-6.21h-7c0-5.64,3.25-8.74,9-8.74v2.77a8.2,8.2,0,0,0-3.36.56,4.63,4.63,0,0,0-2.16,2.51H195Zm-10.38,15h-2.93v-3h2.93Zm5,0h-2.93v-3h2.93Z"/><path class="cls-1" d="M210,125.76H197.39v-3H207c0-3.49-1.37-5.52-4-6.1a12.14,12.14,0,0,0-2.69-.25V113.7h2.76a7.4,7.4,0,0,1,1.61.38q5.34,1.8,5.37,8.63Z"/><path class="cls-1" d="M227.7,125.76h-3.62c-.41,2.93-2.36,4.39-5.81,4.39V127.8a2.76,2.76,0,0,0,3-2h-2.86a6,6,0,0,1-5.83-6.16v0a5.73,5.73,0,0,1,5.54-5.91,3.53,3.53,0,0,1,.46,0c3.25,0,5.53,2.5,5.53,6v3.1h3.66Zm-6.64-3v-3.65a2.63,2.63,0,0,0-2.56-2.7h-.05a2.8,2.8,0,0,0-2.88,2.68c0,.11,0,.21,0,.32a3.1,3.1,0,0,0,2.86,3.33Z"/><path class="cls-1" d="M247.07,125.76H241.4a5.32,5.32,0,0,1-2.37-.65,5.44,5.44,0,0,1-1.69-1.28,10.59,10.59,0,0,1-5.9,1.93H227v-3h4.42a8.66,8.66,0,0,0,2.09-.19,5.59,5.59,0,0,0,1.91-.82,7.76,7.76,0,0,0-2.27-2,10.35,10.35,0,0,0-3.13-1.44V115.5a13.31,13.31,0,0,1,7.21-2.19,11.24,11.24,0,0,1,7.59,2.77,10.82,10.82,0,0,1-1.9,3,15.05,15.05,0,0,1-3.07,3,2.27,2.27,0,0,0,1.07.67,7.84,7.84,0,0,0,1.19.06h5Zm-5.94-8.82a7.44,7.44,0,0,0-3.84-1.07,8.75,8.75,0,0,0-4.12,1.1,10.55,10.55,0,0,1,4.54,3.19,8,8,0,0,0,1.95-1.47A11.18,11.18,0,0,0,241.13,116.94Z"/><path class="cls-1" d="M246.11,125.76v-3h2.73q2.25,0,2.25-3.15V113.7h3v5.81a6.36,6.36,0,0,1-.47,3.08v.17h2.76c1.52,0,2.27-1,2.27-3v-6.1h3v5.81c0,1.73-.22,2.82-.61,3.25h3c1.52,0,2.27-1,2.27-2.93v-6.13h3v5.76a7.5,7.5,0,0,1-.66,3.3h4.56v3Z"/><path class="cls-1" d="M279.82,120.93q0,4.83-4.47,4.83H272.2v-3h2.55c1,0,1.59-.29,1.87-.88a5.65,5.65,0,0,0,.22-1.92V108.58h3Z"/><path class="cls-1" d="M285.51,125.76h-2.94V108.55h2.94Z"/><path class="cls-1" d="M305.14,125.76h-4.76c-.46,2.84-2.88,4.41-6.5,4.41v-2.55c2.47,0,3.71-1.23,3.71-3.79V113.66h3v9.06h4.57Zm-4.61-14.55h-2.92v-2.95h2.92Z"/><path class="cls-1" d="M321.92,123.89v1.87H304.11v-3h14.61a6.47,6.47,0,0,0-1.44-4.24,5.63,5.63,0,0,0-4.6-2h-6.15l5.25-7.88h3.54l-3.61,5.08H313a8.73,8.73,0,0,1,5.1,1.47C320.67,116.81,321.92,119.71,321.92,123.89Z"/><path class="cls-1" d="M335.15,125.76h-4.76c-.46,2.84-2.88,4.41-6.5,4.41v-2.55c2.47,0,3.69-1.23,3.69-3.79V113.66h3v9.06h4.59Z"/><path class="cls-1" d="M351.54,125.76h-3.79a5.66,5.66,0,0,1-4.83,2.32,5.58,5.58,0,0,1-4.77-2.32h-4.07v-3H337c0-.29,0-.59,0-.88a6.13,6.13,0,0,1,1.66-4.4,5.85,5.85,0,0,1,4.33-1.73,5.6,5.6,0,0,1,4.32,1.79A6.31,6.31,0,0,1,349,122v.78h2.66Zm-5.72-3.84a4.21,4.21,0,0,0-.71-2.43,2.78,2.78,0,0,0-2.27-1.08,2.48,2.48,0,0,0-2.15,1.06,3.82,3.82,0,0,0-.7,2.34c0,1.92,1.17,3.49,3,3.49a2.48,2.48,0,0,0,2.11-1A3.89,3.89,0,0,0,345.82,121.92Z"/><path class="cls-1" d="M358.23,120.93q0,4.83-4.47,4.83h-3.15v-3h2.54c1,0,1.59-.29,1.88-.88a5.91,5.91,0,0,0,.22-1.92V108.58h3Z"/><path class="cls-1" d="M363.92,125.76H361V108.55H364Z"/><path class="cls-1" d="M3.2,153.48a4.06,4.06,0,0,0,.36,1.78,3.18,3.18,0,0,0,1,1.21,4.43,4.43,0,0,0,1.47.7,7.77,7.77,0,0,0,1.8.21,5.42,5.42,0,0,0,1.79-.25,3.61,3.61,0,0,0,1.2-.62,2.2,2.2,0,0,0,.66-.88,2.49,2.49,0,0,0,.21-1,2.12,2.12,0,0,0-.48-1.55,2.67,2.67,0,0,0-1-.7c-.74-.26-1.49-.49-2.25-.68s-1.93-.49-3.19-.83a6.76,6.76,0,0,1-1.94-.81A4.55,4.55,0,0,1,1.54,149a4.37,4.37,0,0,1-.66-1.31,5.56,5.56,0,0,1-.19-1.4,4.71,4.71,0,0,1,.58-2.38A4.93,4.93,0,0,1,2.8,142.2a6.41,6.41,0,0,1,2.13-1,9,9,0,0,1,2.42-.33,9.06,9.06,0,0,1,2.69.38,6.35,6.35,0,0,1,2.22,1.11,5.25,5.25,0,0,1,2.08,4.33H11.16A3.07,3.07,0,0,0,10,144.2a4.79,4.79,0,0,0-2.73-.72,6.31,6.31,0,0,0-1.15.11A3.82,3.82,0,0,0,5,144a2.47,2.47,0,0,0-.81.73,2,2,0,0,0-.32,1.15,1.87,1.87,0,0,0,.61,1.51,3.77,3.77,0,0,0,1.56.84l.81.21,1.57.42,1.7.45,1.18.32a5.28,5.28,0,0,1,1.56.77,4.79,4.79,0,0,1,1.1,1.1,4.19,4.19,0,0,1,.66,1.34,4.59,4.59,0,0,1,.22,1.43,5,5,0,0,1-.63,2.62,5.27,5.27,0,0,1-1.64,1.78,7,7,0,0,1-2.32,1,11,11,0,0,1-5.58-.06,7,7,0,0,1-2.4-1.17,5.65,5.65,0,0,1-1.63-2,6.89,6.89,0,0,1-.64-3Z"/><path class="cls-1" d="M28.28,156.61a1.58,1.58,0,0,0,.14.77.61.61,0,0,0,.55.23h.31a1.84,1.84,0,0,0,.41-.05v2l-.41.12-.49.11a4.5,4.5,0,0,1-.51.08h-.44a2.8,2.8,0,0,1-1.47-.35,1.77,1.77,0,0,1-.77-1.26,5.08,5.08,0,0,1-2.13,1.23,8.08,8.08,0,0,1-2.44.38,5.48,5.48,0,0,1-1.71-.24,4.31,4.31,0,0,1-1.44-.71,3.55,3.55,0,0,1-1-1.21,3.69,3.69,0,0,1-.37-1.69,3.85,3.85,0,0,1,.46-2,3,3,0,0,1,1.17-1.19,5,5,0,0,1,1.62-.63,18.37,18.37,0,0,1,1.83-.3,15.25,15.25,0,0,1,1.51-.22,6.87,6.87,0,0,0,1.27-.21,1.92,1.92,0,0,0,.86-.47,1.36,1.36,0,0,0,.32-1,1.57,1.57,0,0,0-.27-.91,1.73,1.73,0,0,0-.66-.54,2.48,2.48,0,0,0-.88-.26,5.82,5.82,0,0,0-.93-.07,3.6,3.6,0,0,0-2,.51,2,2,0,0,0-.88,1.59H17a4.38,4.38,0,0,1,.61-2.12A4.29,4.29,0,0,1,19,146.91a6,6,0,0,1,1.87-.72A12.68,12.68,0,0,1,23,146a10.23,10.23,0,0,1,1.91.2,5.63,5.63,0,0,1,1.69.67,3.75,3.75,0,0,1,1.22,1.19,3.24,3.24,0,0,1,.46,1.77Zm-2.91-3.68a3.49,3.49,0,0,1-1.63.53c-.66.06-1.3.15-1.95.27a5.51,5.51,0,0,0-.89.22,3.21,3.21,0,0,0-.77.37,2,2,0,0,0-.52.65,2.21,2.21,0,0,0-.19.95,1.18,1.18,0,0,0,.29.82,1.93,1.93,0,0,0,.68.52,2.6,2.6,0,0,0,.86.26,4,4,0,0,0,.85.09,4.81,4.81,0,0,0,1-.13,3.69,3.69,0,0,0,1.07-.43,3.24,3.24,0,0,0,.83-.78,2.16,2.16,0,0,0,.32-1.16Z"/><path class="cls-1" d="M43,159.55H40.15v-1.84h0a4.1,4.1,0,0,1-1.61,1.59,4.17,4.17,0,0,1-2.15.6,4.83,4.83,0,0,1-3.76-1.29,5.6,5.6,0,0,1-1.17-3.88v-8.38h2.92v8.09A3.69,3.69,0,0,0,35,156.9a2.44,2.44,0,0,0,1.86.71,3.69,3.69,0,0,0,1.54-.28,2.75,2.75,0,0,0,1-.75,3.28,3.28,0,0,0,.56-1.14A6.34,6.34,0,0,0,40.1,154v-7.66H43Z"/><path class="cls-1" d="M58.49,159.55H55.73v-1.79h0A3.45,3.45,0,0,1,54,159.4a5.52,5.52,0,0,1-2.37.5,6.18,6.18,0,0,1-2.71-.55A5.28,5.28,0,0,1,47,157.86a6.32,6.32,0,0,1-1.15-2.23,9.25,9.25,0,0,1-.39-2.76,9.1,9.1,0,0,1,.49-3.1,6.25,6.25,0,0,1,1.29-2.14A4.8,4.8,0,0,1,49,146.4a5.61,5.61,0,0,1,2.1-.41,6.72,6.72,0,0,1,1.26.12,5.64,5.64,0,0,1,1.21.37,4.31,4.31,0,0,1,1.09.65,3.51,3.51,0,0,1,.83.93h0v-6.73H58.4Zm-10.16-6.46a7.13,7.13,0,0,0,.22,1.66,4.77,4.77,0,0,0,.66,1.45,3.32,3.32,0,0,0,1.14,1,3.39,3.39,0,0,0,4.45-1.09,4.3,4.3,0,0,0,.66-1.5,6.5,6.5,0,0,0,.22-1.7,5.36,5.36,0,0,0-1-3.42,3.43,3.43,0,0,0-5.54.31,4.42,4.42,0,0,0-.63,1.52A7.55,7.55,0,0,0,48.33,153.09Z"/><path class="cls-1" d="M61.73,141.33h2.91v2.75H61.73Zm0,5h2.91v13.2H61.73Z"/><path class="cls-1" d="M75.31,141.33h13.1v2.75H78.49v4.77h9.2v2.61h-9.2v5.33H88.6v2.76H75.31Z"/><path class="cls-1" d="M91,146.35h2.76v2a4.94,4.94,0,0,1,1.73-1.73A4.64,4.64,0,0,1,97.9,146a4.88,4.88,0,0,1,3.4,1.13,4.23,4.23,0,0,1,1.25,3.38v9.05H99.64v-8.29A3.53,3.53,0,0,0,99,149a2.39,2.39,0,0,0-1.91-.71,3,3,0,0,0-2.32,1,3.42,3.42,0,0,0-.64,1.11,3.74,3.74,0,0,0-.23,1.36v7.78H91Z"/><path class="cls-1" d="M107.89,153.71a5,5,0,0,0,.22,1.48,3.71,3.71,0,0,0,.64,1.25,3.26,3.26,0,0,0,1.1.85,3.76,3.76,0,0,0,1.58.32,3.6,3.6,0,0,0,2.07-.55,3.43,3.43,0,0,0,1.15-1.65h2.76a5.89,5.89,0,0,1-.8,1.92,5.33,5.33,0,0,1-1.35,1.41,5.79,5.79,0,0,1-1.76.87,7.58,7.58,0,0,1-4.81-.22,5.69,5.69,0,0,1-2-1.43,6,6,0,0,1-1.25-2.19A9,9,0,0,1,105,153a8.09,8.09,0,0,1,.45-2.67,6.82,6.82,0,0,1,1.27-2.22,6.18,6.18,0,0,1,9.5.3,6.7,6.7,0,0,1,1.19,2.46,7.57,7.57,0,0,1,.2,2.88Zm6.79-1.93a4.59,4.59,0,0,0-.29-1.32,3.92,3.92,0,0,0-.67-1.11,3,3,0,0,0-2.34-1.06,3.32,3.32,0,0,0-1.39.27,3.2,3.2,0,0,0-1.08.74,3.82,3.82,0,0,0-.71,1.11,4.3,4.3,0,0,0-.29,1.37Z"/><path class="cls-1" d="M119.81,146.35h2.73v2.55h0a3.15,3.15,0,0,1,.49-1.05,6.6,6.6,0,0,1,.9-.93,4.86,4.86,0,0,1,1.17-.67,3.33,3.33,0,0,1,1.28-.26h.71l.39.06v2.8a4.88,4.88,0,0,1-.62-.09,4.14,4.14,0,0,0-.61,0,3.4,3.4,0,0,0-1.41.3,3.18,3.18,0,0,0-1.13.86,4.24,4.24,0,0,0-.76,1.42,6.09,6.09,0,0,0-.29,1.94v6.28h-2.9Z"/><path class="cls-1" d="M141,158.86a5.69,5.69,0,0,1-1.66,4.45,7.06,7.06,0,0,1-4.81,1.46,10.36,10.36,0,0,1-2-.2,6.06,6.06,0,0,1-1.83-.69,4.26,4.26,0,0,1-1.39-1.28,3.82,3.82,0,0,1-.66-1.93h2.89a2.49,2.49,0,0,0,.44,1,2.38,2.38,0,0,0,.73.61,3,3,0,0,0,.93.28,9.55,9.55,0,0,0,1.07,0,3.37,3.37,0,0,0,2.57-.86,3.54,3.54,0,0,0,.83-2.51v-2H138a4.52,4.52,0,0,1-4,2.33,5.93,5.93,0,0,1-2.69-.55,5.06,5.06,0,0,1-1.83-1.51,6,6,0,0,1-1.07-2.2,10.59,10.59,0,0,1-.32-2.69,8.07,8.07,0,0,1,.41-2.53,6.75,6.75,0,0,1,1.16-2.1,5.63,5.63,0,0,1,1.88-1.44,5.73,5.73,0,0,1,2.51-.54,5.24,5.24,0,0,1,2.3.53,3.44,3.44,0,0,1,1.61,1.65h.05v-1.82H141Zm-6.45-1.61a3.23,3.23,0,0,0,1.64-.39,3.1,3.1,0,0,0,1.1-1.06,4.18,4.18,0,0,0,.61-1.48,7.11,7.11,0,0,0,.2-1.66,7,7,0,0,0-.2-1.64,4.22,4.22,0,0,0-.63-1.4,3.1,3.1,0,0,0-1.1-1,3.49,3.49,0,0,0-1.62-.36,3,3,0,0,0-1.63.41,3.52,3.52,0,0,0-1.08,1.06,4.48,4.48,0,0,0-.58,1.48,7.56,7.56,0,0,0-.18,1.64,5.69,5.69,0,0,0,.2,1.59,4.22,4.22,0,0,0,.63,1.4,3.14,3.14,0,0,0,1.08,1,2.89,2.89,0,0,0,1.54.41Z"/><path class="cls-1" d="M142.47,146.35h3.18l3.46,9.85h0l3.33-9.85h3l-5.15,13.92-.7,1.7a6.13,6.13,0,0,1-.83,1.45,4.1,4.1,0,0,1-1.23,1,4.32,4.32,0,0,1-1.88.36,13.36,13.36,0,0,1-2-.15v-2.45l.68.12a4,4,0,0,0,.69.06,2.43,2.43,0,0,0,.85-.12,1.45,1.45,0,0,0,.54-.37,2,2,0,0,0,.37-.58,7,7,0,0,0,.29-.76l.32-1Z"/><path class="cls-1" d="M164.67,141.33h13.11v2.75h-9.93v4.77H177v2.61h-9.18v5.33H178v2.76H164.67Z"/><path class="cls-1" d="M179,146.35h2.17v-1.1a5.65,5.65,0,0,1,.3-2,2.93,2.93,0,0,1,.82-1.2,2.6,2.6,0,0,1,1.17-.56,5.74,5.74,0,0,1,1.37-.14,9,9,0,0,1,2,.17v2.27c-.2,0-.4-.08-.6-.11h-.76a1.7,1.7,0,0,0-1,.29,1.2,1.2,0,0,0-.42,1.09v1.35h2.47v2.17h-2.47v11H181.2v-11H179Z"/><path class="cls-1" d="M187.08,146.35h2.16v-1.1a5.44,5.44,0,0,1,.31-2,2.82,2.82,0,0,1,.81-1.2,2.6,2.6,0,0,1,1.17-.56,5.58,5.58,0,0,1,1.35-.14,8.79,8.79,0,0,1,2.05.17v2.27a4.1,4.1,0,0,0-.61-.11h-.74a1.88,1.88,0,0,0-1,.29,1.24,1.24,0,0,0-.41,1.09v1.35h2.48v2.17h-2.48v11h-2.91v-11H187.1Zm9.41-5h2.9v2.75h-2.9Zm0,5h2.9v13.2h-2.9Z"/><path class="cls-1" d="M211.46,150.77a2.7,2.7,0,0,0-1-1.85,3.2,3.2,0,0,0-2-.63,4.41,4.41,0,0,0-1.19.19,3,3,0,0,0-1.18.71,4.08,4.08,0,0,0-.89,1.46,7.21,7.21,0,0,0-.35,2.44,6.51,6.51,0,0,0,.19,1.64,4.21,4.21,0,0,0,.6,1.45,3.37,3.37,0,0,0,1.09,1,3.13,3.13,0,0,0,1.61.4,2.93,2.93,0,0,0,2.1-.8,3.58,3.58,0,0,0,1-2.22h2.91a6.39,6.39,0,0,1-1.94,3.95,6,6,0,0,1-4.1,1.36,7.18,7.18,0,0,1-2.75-.51,5.92,5.92,0,0,1-3.23-3.59,8.3,8.3,0,0,1-.42-2.71,9.35,9.35,0,0,1,.4-2.78,6.29,6.29,0,0,1,1.22-2.26,5.58,5.58,0,0,1,2-1.5,6.81,6.81,0,0,1,2.85-.56,7.32,7.32,0,0,1,2.18.31,5.42,5.42,0,0,1,1.83.87,4.79,4.79,0,0,1,1.32,1.48,4.94,4.94,0,0,1,.61,2.12Z"/><path class="cls-1" d="M216.83,141.33h2.89v2.75h-2.89Zm0,5h2.89v13.2h-2.89Z"/><path class="cls-1" d="M225.16,153.71a5.7,5.7,0,0,0,.22,1.48,3.76,3.76,0,0,0,.66,1.25,3.22,3.22,0,0,0,1.09.85,3.77,3.77,0,0,0,1.59.32,3.54,3.54,0,0,0,2.05-.55,3.23,3.23,0,0,0,1.16-1.65h2.75a5.84,5.84,0,0,1-.78,1.92,5.7,5.7,0,0,1-1.36,1.41,5.52,5.52,0,0,1-1.77.87,7.62,7.62,0,0,1-4.81-.22,5.69,5.69,0,0,1-2-1.43,6.37,6.37,0,0,1-1.25-2.19,9.24,9.24,0,0,1-.41-2.81,7.83,7.83,0,0,1,.44-2.67,7.12,7.12,0,0,1,1.27-2.22,6.29,6.29,0,0,1,2-1.51,6,6,0,0,1,2.64-.57,5.81,5.81,0,0,1,2.8.66,6,6,0,0,1,2.06,1.72,7.29,7.29,0,0,1,1.19,2.46,7.77,7.77,0,0,1,.18,2.88Zm6.79-1.93a4.59,4.59,0,0,0-.29-1.32,4,4,0,0,0-.66-1.11,3.76,3.76,0,0,0-1-.77,3,3,0,0,0-1.34-.29,3.48,3.48,0,0,0-1.39.27,3.12,3.12,0,0,0-1.06.74,3.34,3.34,0,0,0-.71,1.11,3.6,3.6,0,0,0-.31,1.37Z"/><path class="cls-1" d="M237.08,146.35h2.76v2a4.94,4.94,0,0,1,1.73-1.73A4.61,4.61,0,0,1,244,146a4.9,4.9,0,0,1,3.42,1.13,4.31,4.31,0,0,1,1.25,3.38v9.05h-2.91v-8.29a3.52,3.52,0,0,0-.66-2.26,2.39,2.39,0,0,0-1.91-.71,3,3,0,0,0-2.32,1,3.77,3.77,0,0,0-.65,1.11,4,4,0,0,0-.21,1.36v7.78h-2.92Z"/><path class="cls-1" d="M260.64,150.77a2.8,2.8,0,0,0-1-1.85,3.2,3.2,0,0,0-2-.63,4.42,4.42,0,0,0-1.2.19,3.12,3.12,0,0,0-1.17.71,4.08,4.08,0,0,0-.89,1.46,6.76,6.76,0,0,0-.36,2.44,7.57,7.57,0,0,0,.19,1.64,4.45,4.45,0,0,0,.62,1.45,3.17,3.17,0,0,0,1.09,1,3.27,3.27,0,0,0,3.71-.4,3.72,3.72,0,0,0,1-2.22h2.91a6.41,6.41,0,0,1-2,3.95,5.9,5.9,0,0,1-4.09,1.36,7,7,0,0,1-2.74-.51,5.81,5.81,0,0,1-2-1.44,6,6,0,0,1-1.24-2.15,9.18,9.18,0,0,1,0-5.49,6.29,6.29,0,0,1,1.22-2.26,5.58,5.58,0,0,1,2-1.5,6.81,6.81,0,0,1,2.85-.56,7.19,7.19,0,0,1,2.16.31,5.51,5.51,0,0,1,1.85.87,4.62,4.62,0,0,1,1.3,1.48,4.79,4.79,0,0,1,.63,2.12Z"/><path class="cls-1" d="M264.46,146.35h3.19l3.45,9.85h0l3.34-9.85h3l-5.15,13.92c-.23.59-.47,1.16-.69,1.7a6.13,6.13,0,0,1-.83,1.45,4,4,0,0,1-1.24,1,4.32,4.32,0,0,1-1.88.36,13.36,13.36,0,0,1-2-.15v-2.45l.67.12a4.14,4.14,0,0,0,.7.06,2.43,2.43,0,0,0,.85-.12,1.53,1.53,0,0,0,.54-.37,2.2,2.2,0,0,0,.37-.58,7,7,0,0,0,.29-.76l.32-1Z"/><path class="cls-1" d="M299,147.12a6.9,6.9,0,0,0-.56-1.45,3.93,3.93,0,0,0-.91-1.15,4.25,4.25,0,0,0-1.32-.76,5.5,5.5,0,0,0-1.75-.26,5.24,5.24,0,0,0-2.52.58,5,5,0,0,0-1.71,1.57,7.06,7.06,0,0,0-1,2.24,9.54,9.54,0,0,0-.32,2.55,10,10,0,0,0,.32,2.55,7,7,0,0,0,1,2.23,4.84,4.84,0,0,0,4.23,2.16,4.77,4.77,0,0,0,1.9-.37,4,4,0,0,0,1.39-1,5.13,5.13,0,0,0,.93-1.51,6.68,6.68,0,0,0,.42-1.87h3.12a8.44,8.44,0,0,1-.71,3A7.41,7.41,0,0,1,299.9,158a7.32,7.32,0,0,1-2.41,1.51,8.09,8.09,0,0,1-3,.54,8.7,8.7,0,0,1-3.66-.75,7.93,7.93,0,0,1-2.74-2.06,9.19,9.19,0,0,1-1.73-3,11.79,11.79,0,0,1,0-7.38,9.19,9.19,0,0,1,1.73-3,8,8,0,0,1,2.74-2.06,8.42,8.42,0,0,1,3.66-.77,9.35,9.35,0,0,1,2.88.43,7.52,7.52,0,0,1,2.39,1.22,6.65,6.65,0,0,1,1.68,1.94,7,7,0,0,1,.77,2.64Z"/><path class="cls-1" d="M307,153.71a5,5,0,0,0,.22,1.48,3.48,3.48,0,0,0,.65,1.25,3.26,3.26,0,0,0,1.1.85,3.68,3.68,0,0,0,1.57.32,3.54,3.54,0,0,0,2-.55,3.19,3.19,0,0,0,1.17-1.65h2.76a5.33,5.33,0,0,1-.8,1.92,5.48,5.48,0,0,1-1.35,1.41,5.89,5.89,0,0,1-1.78.87,6.78,6.78,0,0,1-2,.29,7.08,7.08,0,0,1-2.76-.51,5.49,5.49,0,0,1-2-1.43,6,6,0,0,1-1.26-2.19A9,9,0,0,1,304,153a8.35,8.35,0,0,1,.44-2.67,7.17,7.17,0,0,1,1.29-2.22,6,6,0,0,1,2-1.51,6.08,6.08,0,0,1,2.65-.57,5.81,5.81,0,0,1,2.8.66,6.13,6.13,0,0,1,2,1.72,7,7,0,0,1,1.18,2.46,7.37,7.37,0,0,1,.19,2.88Zm6.79-1.93a4.29,4.29,0,0,0-.3-1.32,3.21,3.21,0,0,0-.66-1.11,3.76,3.76,0,0,0-1-.77,3,3,0,0,0-1.34-.29,3.37,3.37,0,0,0-2.47,1,3.82,3.82,0,0,0-.71,1.11,4.3,4.3,0,0,0-.29,1.37Z"/><path class="cls-1" d="M318.86,146.35h2.76v1.94l.05.06a5.05,5.05,0,0,1,1.74-1.73,4.6,4.6,0,0,1,2.37-.63,5,5,0,0,1,3.43,1.13,4.38,4.38,0,0,1,1.25,3.38v9.05h-2.91v-8.29a3.58,3.58,0,0,0-.67-2.26,2.39,2.39,0,0,0-1.91-.71,3.09,3.09,0,0,0-1.34.27,3.18,3.18,0,0,0-1,.74,3.68,3.68,0,0,0-.62,1.11,4,4,0,0,0-.24,1.36v7.78h-2.91Z"/><path class="cls-1" d="M332.19,146.35h2.2V142.4h2.89v3.95h2.64v2.17h-2.64v7a7.16,7.16,0,0,0,.05.8,1.53,1.53,0,0,0,.17.55.82.82,0,0,0,.43.35,2,2,0,0,0,.76.12h.61a3.19,3.19,0,0,0,.62-.08v2.24l-.94.1a8.34,8.34,0,0,1-1,0,6.09,6.09,0,0,1-1.85-.22,2.43,2.43,0,0,1-1.1-.63,2.24,2.24,0,0,1-.54-1.06,8.92,8.92,0,0,1-.15-1.46v-7.78h-2.2Z"/><path class="cls-1" d="M344.28,153.71a4.66,4.66,0,0,0,.22,1.48,3.71,3.71,0,0,0,.64,1.25,3.65,3.65,0,0,0,1.1.85,3.77,3.77,0,0,0,1.59.32,3.54,3.54,0,0,0,2.05-.55,3.36,3.36,0,0,0,1.17-1.65h2.74a5.42,5.42,0,0,1-.77,1.92,5.69,5.69,0,0,1-3.14,2.28,7.62,7.62,0,0,1-4.81-.22,5.79,5.79,0,0,1-2-1.43,6,6,0,0,1-1.25-2.19,9.24,9.24,0,0,1-.41-2.81,7.83,7.83,0,0,1,.44-2.67,6.82,6.82,0,0,1,1.27-2.22,6.12,6.12,0,0,1,4.66-2.08,6,6,0,0,1,4.84,2.38,6.86,6.86,0,0,1,1.19,2.46,7.57,7.57,0,0,1,.2,2.88Zm6.79-1.93a5.47,5.47,0,0,0-.29-1.32,3.73,3.73,0,0,0-.68-1.11,3.27,3.27,0,0,0-1-.77,3,3,0,0,0-1.34-.29,3.32,3.32,0,0,0-1.39.27,3.16,3.16,0,0,0-1.07.74,3.69,3.69,0,0,0-.71,1.11,3.59,3.59,0,0,0-.3,1.37Z"/><path class="cls-1" d="M356.2,146.35h2.73v2.55H359a3.08,3.08,0,0,1,.5-1.05,6,6,0,0,1,.88-.93,5.22,5.22,0,0,1,1.17-.67,3.48,3.48,0,0,1,1.31-.26h.69l.39.06v2.8a4.28,4.28,0,0,1-.61-.09,4.42,4.42,0,0,0-.63,0,3.39,3.39,0,0,0-2.54,1.16,4.24,4.24,0,0,0-.76,1.42,6.36,6.36,0,0,0-.27,1.94v6.28H356.2Z"/><path class="cls-2" d="M317.28,118.48c.3,0,.38-.39.05-.39S316.94,118.48,317.28,118.48Z"/></g></g></g></svg>